name C:\Users\u0150099\Documents\master_thesis\3dpredictsim\Results\debug\Fal_s1_mtjc2_sc_cspx10_oy2_ATx70_Fpsl10_MTc2_MTPm_k1_d01_tau_MTJm_nl_MG_exp5_table_d01_PF_Natali2010_ls146_FDB2_lTs125_Fpsl10_ig21_wAk2e+04_wa2e+03_wpMnD1e+03.mot
datacolumns 130
datarows 4
range 1.08143788 1.11388102
endheader
time	pelvis_tilt	pelvis_list	pelvis_rotation	pelvis_tx	pelvis_ty	pelvis_tz	hip_flexion_l	hip_adduction_l	hip_rotation_l	hip_flexion_r	hip_adduction_r	hip_rotation_r	knee_angle_l	knee_angle_r	ankle_angle_l	ankle_angle_r	subtalar_angle_l	subtalar_angle_r	mtj_angle_l	mtj_angle_r	mtp_angle_l	mtp_angle_r	lumbar_extension	lumbar_bending	lumbar_rotation	arm_flex_l	arm_add_l	arm_rot_l	arm_flex_r	arm_add_r	arm_rot_r	elbow_flex_l	elbow_flex_r	pro_sup_l	pro_sup_r	glut_med1_l/activation	glut_med2_l/activation	glut_med3_l/activation	glut_min1_l/activation	glut_min2_l/activation	glut_min3_l/activation	semimem_l/activation	semiten_l/activation	bifemlh_l/activation	bifemsh_l/activation	sar_l/activation	add_long_l/activation	add_brev_l/activation	add_mag1_l/activation	add_mag2_l/activation	add_mag3_l/activation	tfl_l/activation	pect_l/activation	grac_l/activation	glut_max1_l/activation	glut_max2_l/activation	glut_max3_l/activation	iliacus_l/activation	psoas_l/activation	quad_fem_l/activation	gem_l/activation	peri_l/activation	rect_fem_l/activation	vas_med_l/activation	vas_int_l/activation	vas_lat_l/activation	med_gas_l/activation	lat_gas_l/activation	soleus_l/activation	tib_post_l/activation	flex_dig_l/activation	flex_hal_l/activation	tib_ant_l/activation	per_brev_l/activation	per_long_l/activation	per_tert_l/activation	ext_dig_l/activation	ext_hal_l/activation	FDB_l/activation	ercspn_l/activation	intobl_l/activation	extobl_l/activation	glut_med1_r/activation	glut_med2_r/activation	glut_med3_r/activation	glut_min1_r/activation	glut_min2_r/activation	glut_min3_r/activation	semimem_r/activation	semiten_r/activation	bifemlh_r/activation	bifemsh_r/activation	sar_r/activation	add_long_r/activation	add_brev_r/activation	add_mag1_r/activation	add_mag2_r/activation	add_mag3_r/activation	tfl_r/activation	pect_r/activation	grac_r/activation	glut_max1_r/activation	glut_max2_r/activation	glut_max3_r/activation	iliacus_r/activation	psoas_r/activation	quad_fem_r/activation	gem_r/activation	peri_r/activation	rect_fem_r/activation	vas_med_r/activation	vas_int_r/activation	vas_lat_r/activation	med_gas_r/activation	lat_gas_r/activation	soleus_r/activation	tib_post_r/activation	flex_dig_r/activation	flex_hal_r/activation	tib_ant_r/activation	per_brev_r/activation	per_long_r/activation	per_tert_r/activation	ext_dig_r/activation	ext_hal_r/activation	FDB_r/activation	ercspn_r/activation	intobl_r/activation	extobl_r/activation	
          1.08143788	         -2.92212864	         -1.65222772	          4.69242354	          1.43831238	          0.90973818	         -0.00378046	        -18.68898370	          0.96399497	         10.17206377	         27.26980566	          2.73771654	         -2.67364664	         -6.96623144	         -6.93300041	          3.76643952	          4.09650353	          6.77498807	          2.50866681	          0.53320804	          0.98526613	         14.44039116	          0.04361458	         -3.76403382	          0.83381140	         -2.68664958	          3.38900668	        -13.81641348	         19.38759016	         -2.02524384	        -13.47831014	         10.05991421	         39.52631275	         20.53231892	         86.51662706	         86.51662706	          0.38062329	          0.09701759	          0.05283168	          0.55862688	          0.27995288	          0.11049715	          0.05000041	          0.05000005	          0.05000004	          0.08895893	          0.13513631	          0.05000002	          0.05000003	          0.05000005	          0.05000020	          0.05000014	          0.67456138	          0.05000020	          0.05000010	          0.05000086	          0.05000040	          0.05000021	          0.49351212	          0.71940661	          0.05000002	          0.05000016	          0.05000005	          0.36149869	          0.05111967	          0.05397930	          0.05000137	          0.47591293	          0.54101360	          0.33108291	          0.45868340	          0.40805287	          0.49410140	          0.05000000	          0.05638119	          0.12016484	          0.05000005	          0.05000002	          0.10382531	          0.86155727	          0.05000001	          0.05000000	          0.05000000	          0.05000025	          0.05000011	          0.05000066	          0.05000009	          0.05000012	          0.05000027	          0.30478769	          0.08530592	          0.29969721	          0.08436759	          0.05000083	          0.14295787	          0.15737422	          0.12774081	          0.13235692	          0.13216317	          0.05000152	          0.06247043	          0.15432508	          0.05000142	          0.05338768	          0.10556928	          0.06491688	          0.05104612	          0.12089097	          0.05000025	          0.05000007	          0.05000007	          0.05000058	          0.05000055	          0.05000049	          0.05000032	          0.05000016	          0.05000001	          0.05542151	          0.05000020	          0.05000023	          0.32227636	          0.07299345	          0.12336205	          0.08834347	          0.46196074	          0.24788871	          0.07198108	          0.06706496	          0.08850375	          0.07549435	
          1.09225226	         -2.92758230	         -1.78599517	          5.04001813	          1.45517335	          0.90855460	         -0.00369219	        -18.75584781	          0.57366316	         10.11654474	         27.06933954	          3.17988073	         -2.55434904	         -8.53884814	         -7.44336958	          3.26044111	          3.56952219	          7.69811696	          2.47293336	         -0.47708391	          1.26998266	         16.91546325	         -0.50130854	         -3.56985210	          1.02981403	         -2.80416732	          2.94960160	        -13.78539851	         19.33910198	         -2.72178797	        -13.45275152	          9.53062053	         41.43329497	         19.60377458	         86.51662706	         86.51662706	          0.32249665	          0.08220161	          0.05000000	          0.47331652	          0.23720005	          0.09362266	          0.05000109	          0.05000011	          0.05000007	          0.07537362	          0.11449910	          0.05000053	          0.05000027	          0.05000019	          0.05000054	          0.05000062	          0.62238147	          0.05000133	          0.05000015	          0.05000044	          0.05000026	          0.05000024	          0.41814572	          0.66037187	          0.05000001	          0.05000009	          0.05000003	          0.35668755	          0.08025048	          0.08665424	          0.06600411	          0.43280457	          0.49700601	          0.31315220	          0.42399211	          0.44760914	          0.46980100	          0.05000000	          0.05901197	          0.10181394	          0.05000004	          0.05000001	          0.08796970	          0.72998505	          0.05000001	          0.05000007	          0.05000021	          0.05901194	          0.05901187	          0.05000005	          0.05901199	          0.05901197	          0.05000531	          0.25824223	          0.07227852	          0.25499317	          0.07148353	          0.05000023	          0.15598327	          0.14264408	          0.10823322	          0.12102719	          0.14934918	          0.05000008	          0.05864243	          0.14534000	          0.05000012	          0.05000034	          0.15984521	          0.07691041	          0.05708843	          0.35999923	          0.16285620	          0.06822387	          0.05000001	          0.05000003	          0.05000003	          0.05000003	          0.05000003	          0.05000010	          0.05000000	          0.06439091	          0.05000839	          0.07778979	          0.34395142	          0.13058393	          0.14038045	          0.07491092	          0.49639455	          0.21003256	          0.08339167	          0.05682318	          0.07498795	          0.06846357	
          1.10306664	         -2.93016004	         -1.94016872	          5.36770968	          1.47243015	          0.90752142	         -0.00359258	        -18.76612291	          0.14120719	          9.99088301	         26.86379922	          3.58097811	         -2.41343916	        -10.15173166	         -8.57317574	          2.48916973	          2.58865602	          8.69707592	          2.43990738	         -1.64515161	          1.50582131	         19.68332348	         -0.97865483	         -3.34336719	          1.24788705	         -2.90793525	          2.41171119	        -13.74038441	         19.21500204	         -3.47876514	        -13.45364140	          9.26423165	         43.36700499	         18.74525195	         86.51662706	         86.51662706	          0.27324678	          0.06964825	          0.05814357	          0.40103428	          0.20097620	          0.07932514	          0.05000099	          0.05000018	          0.05000025	          0.06386299	          0.09701349	          0.14154308	          0.05901197	          0.05901198	          0.05901185	          0.05901196	          0.64911968	          0.05900951	          0.05000150	          0.05000325	          0.05000551	          0.05901158	          0.35428885	          0.65387524	          0.05901193	          0.05901179	          0.05002192	          0.32938974	          0.13340540	          0.13498679	          0.11450425	          0.36732689	          0.42752066	          0.27102687	          0.35924246	          0.41441390	          0.39805581	          0.05000000	          0.05000004	          0.08626548	          0.05000001	          0.05000000	          0.07453546	          0.61850580	          0.05765638	          0.05901227	          0.05248903	          0.05000000	          0.05000002	          0.09929909	          0.05000003	          0.05000003	          0.05000004	          0.21880492	          0.06124057	          0.21605203	          0.06056698	          0.06964806	          0.13707223	          0.23985194	          0.27722473	          0.19058658	          0.18455148	          0.05000032	          0.06969018	          0.12314460	          0.05051839	          0.13784452	          0.19997176	          0.06964660	          0.06964816	          0.52132969	          0.13798575	          0.05780513	          0.05901213	          0.05901211	          0.05901210	          0.05901207	          0.06555067	          0.06964850	          0.06582982	          0.05455752	          0.05582984	          0.06964196	          0.43491429	          0.20641069	          0.13231687	          0.24933703	          0.46660551	          0.17795757	          0.07065656	          0.05000000	          0.06353621	          0.05800829	
          1.11388102	         -2.93016282	         -2.13918685	          5.67853965	          1.49002819	          0.90667901	         -0.00351671	        -18.71448661	         -0.34991305	          9.79805498	         26.59098085	          3.90610083	         -2.18497307	        -11.79055414	         -9.91306762	          1.43706014	          1.49991592	          9.69045582	          2.40547582	         -3.00419135	          1.66362868	         22.73248923	         -1.35101196	         -3.08563763	          1.51497906	         -3.00023244	          1.78809077	        -13.68184674	         19.06116872	         -4.28522387	        -13.48195725	          9.22033450	         45.31736284	         17.95199564	         86.51662706	         86.51662706	          0.23151907	          0.05901198	          0.05000001	          0.33988056	          0.17028427	          0.06721107	          0.05000050	          0.05000004	          0.05000003	          0.05411025	          0.08219842	          0.17275733	          0.05000004	          0.05000006	          0.05000016	          0.05000009	          0.64857059	          0.05000048	          0.05000011	          0.05000051	          0.05000023	          0.05000013	          0.30235576	          0.65505145	          0.05000002	          0.05000011	          0.05000002	          0.27908718	          0.11303250	          0.11437238	          0.09701782	          0.31123077	          0.36223211	          0.22963715	          0.30438095	          0.35112705	          0.33726698	          0.05000002	          0.05000002	          0.07309150	          0.05000002	          0.05000001	          0.06315283	          0.52405103	          0.08313247	          0.05000024	          0.05000003	          0.31380377	          0.27317538	          0.26004184	          0.24867127	          0.13112996	          0.09701866	          0.18539025	          0.09321229	          0.18305777	          0.06964817	          0.05901198	          0.11613937	          0.20322316	          0.23488857	          0.16148139	          0.22644851	          0.05000021	          0.05904796	          0.13170723	          0.05000015	          0.22385091	          0.24674995	          0.05901197	          0.05901193	          0.44171513	          0.11691337	          0.05903478	          0.05000014	          0.05000013	          0.05000012	          0.05000009	          0.05554014	          0.05901217	          0.05577665	          0.05703564	          0.05901202	          0.05901199	          0.53148987	          0.17488883	          0.12792474	          0.33314082	          0.59675233	          0.36154472	          0.43667136	          0.05000006	          0.09701745	          0.05000001	
